HIERARCHY
ROOT hip
{
  OFFSET 0 0 0
  CHANNELS 6 Xposition Yposition Zposition Zrotation Yrotation Xrotation
  JOINT abdomen
  {
    OFFSET 0 20.6881 -0.73152
    CHANNELS 3 Zrotation Xrotation Yrotation
    JOINT chest
    {
      OFFSET 0 11.7043 -0.48768
      CHANNELS 3 Zrotation Xrotation Yrotation
      JOINT neck
      {
        OFFSET 0 22.1894 -2.19456
        CHANNELS 3 Zrotation Xrotation Yrotation
        JOINT head
        {
          OFFSET -0.24384 7.07133 1.2192
          CHANNELS 3 Zrotation Xrotation Yrotation
          JOINT leftEye
          {
            OFFSET 4.14528 8.04674 8.04672
            CHANNELS 3 Zrotation Xrotation Yrotation
            End Site
            {
              OFFSET 1 0 0
            }
          }
          JOINT rightEye
          {
            OFFSET -3.6576 8.04674 8.04672
            CHANNELS 3 Zrotation Xrotation Yrotation
            End Site
            {
              OFFSET 1 0 0
            }
          }
        }
      }
      JOINT rCollar
      {
        OFFSET -2.68224 19.2634 -4.8768
        CHANNELS 3 Zrotation Xrotation Yrotation
        JOINT rShldr
        {
          OFFSET -8.77824 -1.95073 1.46304
          CHANNELS 3 Zrotation Xrotation Yrotation
          JOINT rForeArm
          {
            OFFSET -28.1742 -1.7115 0.48768
            CHANNELS 3 Zrotation Xrotation Yrotation
            JOINT rHand
            {
              OFFSET -22.5879 0.773209 7.07136
              CHANNELS 3 Zrotation Xrotation Yrotation
              JOINT rThumb1
              {
                OFFSET -1.2192 -0.487915 3.41376
                CHANNELS 3 Zrotation Xrotation Yrotation
                JOINT rThumb2
                {
                  OFFSET -3.37035 -0.52449 3.41376
                  CHANNELS 3 Zrotation Xrotation Yrotation
                  End Site
                  {
                    OFFSET -1.78271 -1.18214 1.43049
                  }
                }
              }
              JOINT rIndex1
              {
                OFFSET -7.75947 0.938293 5.60832
                CHANNELS 3 Zrotation Xrotation Yrotation
                JOINT rIndex2
                {
                  OFFSET -2.54057 -0.884171 1.56538
                  CHANNELS 3 Zrotation Xrotation Yrotation
                  End Site
                  {
                    OFFSET -1.62519 -0.234802 1.16502
                  }
                }
              }
              JOINT rMid1
              {
                OFFSET -8.24714 1.18213 3.41376
                CHANNELS 3 Zrotation Xrotation Yrotation
                JOINT rMid2
                {
                  OFFSET -3.10165 -0.590103 1.0647
                  CHANNELS 3 Zrotation Xrotation Yrotation
                  End Site
                  {
                    OFFSET -2.48547 -0.328903 0.83742
                  }
                }
              }
              JOINT rRing1
              {
                OFFSET -8.82822 0.546677 1.51678
                CHANNELS 3 Zrotation Xrotation Yrotation
                JOINT rRing2
                {
                  OFFSET -2.60934 -0.819778 -0.0198488
                  CHANNELS 3 Zrotation Xrotation Yrotation
                  End Site
                  {
                    OFFSET -2.33842 -0.294052 0.168128
                  }
                }
              }
              JOINT rPinky1
              {
                OFFSET -8.27202 -0.0477905 -0.4584
                CHANNELS 3 Zrotation Xrotation Yrotation
                JOINT rPinky2
                {
                  OFFSET -1.82734 -0.647385 -0.700984
                  CHANNELS 3 Zrotation Xrotation Yrotation
                  End Site
                  {
                    OFFSET -1.69225 -0.51767 -0.607171
                  }
                }
              }
            }
          }
        }
      }
      JOINT lCollar
      {
        OFFSET 2.68224 19.2634 -4.8768
        CHANNELS 3 Zrotation Xrotation Yrotation
        JOINT lShldr
        {
          OFFSET 8.77824 -1.95073 1.46304
          CHANNELS 3 Zrotation Xrotation Yrotation
          JOINT lForeArm
          {
            OFFSET 28.1742 -1.7115 0.48768
            CHANNELS 3 Zrotation Xrotation Yrotation
            JOINT lHand
            {
              OFFSET 22.5879 0.773209 7.07136
              CHANNELS 3 Zrotation Xrotation Yrotation
              JOINT lThumb1
              {
                OFFSET 1.2192 -0.487915 3.41376
                CHANNELS 3 Zrotation Xrotation Yrotation
                JOINT lThumb2
                {
                  OFFSET 3.37035 -0.52449 3.41376
                  CHANNELS 3 Zrotation Xrotation Yrotation
                  End Site
                  {
                    OFFSET 1.78271 -1.18214 1.43049
                  }
                }
              }
              JOINT lIndex1
              {
                OFFSET 7.75947 0.938293 5.60832
                CHANNELS 3 Zrotation Xrotation Yrotation
                JOINT lIndex2
                {
                  OFFSET 2.54057 -0.884171 1.56538
                  CHANNELS 3 Zrotation Xrotation Yrotation
                  End Site
                  {
                    OFFSET 1.62519 -0.234802 1.16502
                  }
                }
              }
              JOINT lMid1
              {
                OFFSET 8.24714 1.18213 3.41376
                CHANNELS 3 Zrotation Xrotation Yrotation
                JOINT lMid2
                {
                  OFFSET 3.10165 -0.590103 1.0647
                  CHANNELS 3 Zrotation Xrotation Yrotation
                  End Site
                  {
                    OFFSET 2.48547 -0.328903 0.83742
                  }
                }
              }
              JOINT lRing1
              {
                OFFSET 8.82822 0.546677 1.51678
                CHANNELS 3 Zrotation Xrotation Yrotation
                JOINT lRing2
                {
                  OFFSET 2.60934 -0.819778 -0.0198488
                  CHANNELS 3 Zrotation Xrotation Yrotation
                  End Site
                  {
                    OFFSET 2.33842 -0.294052 0.168128
                  }
                }
              }
              JOINT lPinky1
              {
                OFFSET 8.27202 -0.0477905 -0.4584
                CHANNELS 3 Zrotation Xrotation Yrotation
                JOINT lPinky2
                {
                  OFFSET 1.82734 -0.647385 -0.700984
                  CHANNELS 3 Zrotation Xrotation Yrotation
                  End Site
                  {
                    OFFSET 1.69225 -0.51767 -0.607171
                  }
                }
              }
            }
          }
        }
      }
    }
  }
  JOINT rButtock
  {
    OFFSET -8.77824 4.35084 1.2192
    CHANNELS 3 Zrotation Xrotation Yrotation
    JOINT rThigh
    {
      OFFSET 0 -1.70687 -2.19456
      CHANNELS 3 Zrotation Xrotation Yrotation
      JOINT rShin
      {
        OFFSET 0 -36.8199 0.73152
        CHANNELS 3 Zrotation Xrotation Yrotation
        JOINT rFoot
        {
          OFFSET 0.73152 -45.1104 -5.12064
          CHANNELS 3 Zrotation Xrotation Yrotation
          End Site
          {
            OFFSET -1.1221 -3.69964 12.103
          }
        }
      }
    }
  }
  JOINT lButtock
  {
    OFFSET 8.77824 4.35084 1.2192
    CHANNELS 3 Zrotation Xrotation Yrotation
    JOINT lThigh
    {
      OFFSET 0 -1.70687 -2.19456
      CHANNELS 3 Zrotation Xrotation Yrotation
      JOINT lShin
      {
        OFFSET 0 -36.8199 0.73152
        CHANNELS 3 Zrotation Xrotation Yrotation
        JOINT lFoot
        {
          OFFSET -0.73152 -45.1104 -5.12064
          CHANNELS 3 Zrotation Xrotation Yrotation
          End Site
          {
            OFFSET 1.1221 -3.69964 12.103
          }
        }
      }
    }
  }
}
MOTION
Frames:	7
Frame Time:	0.03333
0.0 0.0 0.0 0.0 0.0 0.0 0.0 0.0 0.0 0.0 0.0 0.0 0.0 0.0 0.0 0.0 0.0 0.0 0.0 0.0 0.0 0.0 0.0 0.0 0.0 0.0 0.0 0.0 0.0 0.0 0.0 0.0 0.0 0.0 0.0 0.0 0.0 0.0 0.0 0.0 0.0 0.0 0.0 0.0 0.0 0.0 0.0 0.0 0.0 0.0 0.0 0.0 0.0 0.0 0.0 0.0 0.0 0.0 0.0 0.0 0.0 0.0 0.0 0.0 0.0 0.0 0.0 0.0 0.0 0.0 0.0 0.0 0.0 0.0 0.0 0.0 0.0 0.0 0.0 0.0 0.0 0.0 0.0 0.0 0.0 0.0 0.0 0.0 0.0 0.0 0.0 0.0 0.0 0.0 0.0 0.0 0.0 0.0 0.0 0.0 0.0 0.0 0.0 0.0 0.0 0.0 0.0 0.0 0.0 0.0 0.0 0.0 0.0 0.0 0.0 0.0 0.0 0.0 0.0 0.0 0.0 0.0 0.0 0.0 0.0 0.0 0.0 0.0 0.0 0.0 0.0 0.0
-0.161 63.694300000000005 0.183 -7.960055 -25.244403 2.758533 0.779955 10.994322 -2.03545 3.25971 -12.788396 20.119633 -10.69644 25.108778 -86.739093 31.956984 17.07902 113.831807 0.001725 0.0 0.000984 0.001436 -0.0 -0.001026 -148.338793 27.238852 153.215041 -40.43588 -1.450996 37.484523 11.524524 47.375083 -153.916263 -122.395873 42.165781 109.789165 -2.330747 2.285887 0.403447 -12.908758 13.090515 12.44988 20.714896 -36.971833 -5.947011 -172.267106 -33.890494 108.64954 -176.684418 -52.193989 143.731494 -2.599592 15.230596 3.107252 -69.619985 -72.118127 -86.482341 -150.751871 -11.43344 177.741031 -151.285582 33.753835 -146.905613 -63.692332 -52.90746 -63.263976 158.987027 -38.809866 -168.550822 127.704418 -34.687869 105.397927 166.3378 -35.032924 80.786035 6.282653 36.886908 -3.303984 154.449762 7.532796 -87.556822 -93.565492 -58.069825 -65.481301 -37.666926 -58.312386 0.395911 -36.22765 -30.880918 3.009777 -1.284677 -3.820337 0.683153 170.766225 -27.64251 -144.267145 145.112603 -0.68779 178.912101 -2.119593 -45.504753 18.541873 -30.061857 82.337917 -7.835628 -2.428522 2.843963 0.134392 0.019668 0.000688 0.014013 -13.651415 -37.773549 -78.283502 -91.891433 42.729234 -169.47466 113.664573 63.987014 142.51119 0.001333 -0.000914 -0.000574 76.492811 -42.846565 -169.477917 78.794203 -21.650093 172.789952 149.363599 40.963204 -90.006032
-0.2336 63.5687 0.2631 -8.103399 -25.150691 2.835086 3.0224 7.830457 -107.849111 9.146326 3.515593 124.995417 1.195284 33.227412 -174.675449 -4.614691 39.08612 -153.23902 0.004603 0.0 0.003234 -0.001356 -0.0 0.002006 -4.968484 22.193766 6.023001 -111.820093 -7.150679 162.460641 -37.315756 44.001 -121.515383 -152.208146 10.756796 143.059907 160.400753 -33.425104 83.330188 46.975984 -80.252755 28.663971 -122.12013 24.41649 103.07744 -0.05551 12.885661 -5.177093 13.8253 -42.165382 -2.978847 -167.477794 -17.318702 144.170985 -0.097676 -4.672637 -1.473479 -155.996292 -21.359404 174.380515 -10.673673 -21.645826 -10.114954 -2.247162 -12.675951 -4.603887 153.648731 7.112555 -159.408594 -137.896748 -2.853262 164.933304 54.342757 -37.06242 -57.793592 -5.023145 1.079977 -4.16665 149.227425 12.185325 -85.901823 109.972411 2.598388 -52.203276 -179.031388 -59.7128 -116.16607 15.188051 41.161879 -9.280983 164.775011 -19.727089 -144.770468 167.210482 -16.52328 -143.803793 5.845357 -39.651843 15.244858 152.218069 3.217284 -172.619272 -17.261547 60.46056 -12.776817 1.594743 -7.805481 3.216068 0.000713 -0.000374 0.001254 -16.070064 -38.751123 134.491222 98.829716 -63.702756 -170.248511 -125.468578 -66.563526 -42.112353 0.001465 -0.000167 0.000276 75.521071 -42.613691 139.983624 83.07708 15.727165 29.753968 -139.355575 -18.283326 118.1272
-0.3034 63.4429 0.3486 -8.153136 -25.027168 2.870968 -1.233162 9.861726 55.495987 -7.021055 -10.734193 -38.573287 -10.467081 25.978707 -92.01192 31.150143 19.547352 118.666525 0.001582 0.0 0.001712 0.001299 -0.0 -0.000296 3.958323 -37.009424 -7.13369 -111.22264 -22.770895 -147.552618 -37.608681 56.612144 -113.958226 -148.004664 18.642056 138.007314 -178.272217 -15.829305 89.507649 -27.352737 -35.368486 -0.736658 6.727068 -11.631056 -3.309093 -179.386945 -37.569962 105.333962 -12.628089 28.645158 8.975296 -158.895543 7.712497 141.55583 -145.124318 1.665956 -179.650942 11.983274 38.959398 -4.572123 2.565973 7.113256 2.343945 -75.927004 -54.868082 -75.458469 14.896545 44.179632 -16.785464 -75.342829 -15.751688 -74.501927 171.820167 35.177516 -47.838851 -151.379267 -41.777618 -135.936007 -44.347964 -37.761875 -9.263782 50.780033 34.414249 -24.806116 -39.933045 -60.175338 -0.900696 6.670618 30.724422 -6.820143 161.973424 -10.73785 -143.816329 175.195983 -38.568578 -142.960359 -0.002538 0.683924 -0.214099 -8.86698 15.611543 -2.106924 28.730001 -40.382865 27.735127 -11.031167 24.927668 -5.573335 0.000362 -0.000987 0.000131 -13.647358 -37.602244 -75.181859 -92.009071 46.009546 -171.511221 162.532865 15.221239 125.748188 179.997043 75.749029 0.002115 -132.333213 0.034701 -90.020085 -85.692624 1.799575 -130.989175 139.283109 55.007128 150.076856
-0.37429999999999997 63.3507 0.4379 -8.121178 -24.938039 2.844683 -0.118012 10.703762 21.873871 -1.150126 -13.190824 -4.507837 -8.690487 17.705026 -43.044334 28.085227 -4.651496 74.699476 -0.002169 -0.0 0.000605 0.003219 -0.0 -0.00218 -158.497689 -30.468308 166.99654 -43.692323 -14.563556 -10.798721 140.471195 -50.800878 -96.663499 -21.029261 -25.358114 -3.603525 -171.994862 -9.67707 89.945848 -60.444035 -4.615582 14.963498 -19.844013 24.721575 13.914268 19.53411 -16.040978 -1.785021 9.861856 -30.922935 -3.242324 0.918205 6.357073 0.973623 -145.103914 -1.181503 -178.757245 12.167403 49.289605 -3.237735 6.558168 19.934517 5.856145 1.567087 -1.457097 -0.511859 1.259142 6.937336 -1.624283 95.661211 4.6999 -137.09484 -176.992396 9.713495 85.61971 13.373783 52.172288 -6.244652 -171.021257 -25.452849 -87.234678 141.492078 15.336867 -77.35742 147.954988 -10.916638 -119.864093 144.490407 18.798073 -114.30795 158.758873 -0.887178 -142.27454 158.339991 9.209841 -140.905174 0.009149 -0.79069 0.249582 156.300538 -20.63795 -174.274768 159.494757 64.53069 151.054659 3.523102 -11.573595 5.703426 0.003437 0.000577 0.003181 -13.929603 -38.566437 -130.3619 -91.389114 -9.019694 176.188437 73.869229 82.929285 177.320755 0.001153 0.000577 0.001405 77.344587 -40.691516 -10.120917 -73.911386 5.002729 63.505491 93.276549 6.77998 -28.278285
-0.4399 63.2603 0.518 -8.12405 -24.923368 2.802148 0.910543 10.889208 -2.5593 3.460101 -12.68136 20.444458 -10.692474 24.715833 -84.469508 31.829571 15.853115 111.775538 0.002566 -0.0 -0.000233 0.002566 -0.0 -0.000233 -54.822499 66.616862 57.639392 -115.097449 9.461546 119.558916 21.761258 -9.62123 -147.312864 -103.421209 47.643147 89.791382 -169.545079 -7.227257 89.928471 -139.306591 8.435349 69.850359 -132.081489 13.743247 110.590969 -58.504387 55.393122 40.123347 -16.167177 34.01285 11.924985 -2.171423 15.097877 2.772253 -145.113397 -0.363472 -179.014116 12.129841 37.162587 -4.785018 -159.142809 63.431974 -151.002301 -25.106553 -39.627307 -25.513933 -4.179333 -54.113194 10.752954 -71.860681 12.266154 14.962488 -170.077487 13.184397 -52.379404 -160.991308 -26.010222 -143.520647 -12.735995 -12.697245 0.550903 3.529309 -0.270234 5.828343 150.970085 -16.444787 -121.005366 16.414424 40.189488 -6.318781 173.643484 -45.56708 -144.780658 -2.642022 1.296515 -0.49064 125.46955 60.890882 -147.167067 -2.445347 61.209755 -4.451998 99.068434 -47.036444 97.293356 16.769176 -34.266411 19.204743 179.99215 75.750095 0.007496 165.196822 34.98401 173.821173 -174.102881 -79.724087 -164.479449 -161.683292 5.889011 -127.075744 0.009222 0.000621 0.006883 76.395429 -42.679432 145.057725 79.29837 9.846757 -12.670435 -122.040893 41.719854 42.94361
-0.5003 63.1753 0.5928 -8.142167 -24.922906 2.784448 -0.066143 10.731155 21.042543 -1.014649 -13.186836 -3.555782 0.433078 33.291989 -170.354151 -1.997338 39.160019 -158.450347 -0.000182 -0.0 0.000616 0.005497 -0.0 -0.000146 -136.774937 48.437813 140.866411 116.132733 -28.809881 114.686761 -177.000101 -29.95123 30.80299 -130.349087 37.686168 118.298829 -5.358457 5.193821 1.060451 -4.466802 5.609466 7.051275 -91.587863 40.737718 77.011159 2.000147 6.815941 -4.143643 -165.442511 -21.873093 144.935812 24.874982 -53.923944 3.716042 -145.121662 0.774258 -179.371505 -117.160729 86.76246 130.628527 11.028837 36.598977 9.423471 -24.624272 -40.874479 -24.748282 -1.743023 -69.98314 16.435539 110.942033 2.247948 153.226871 -121.880462 -27.170806 110.811631 143.694845 73.734488 -125.7741 -2.955623 -2.939292 0.380258 134.418261 -33.747709 -118.72349 108.066808 34.356663 -91.433988 174.250464 -28.220283 -115.091437 35.883354 51.640447 -29.688797 3.287767 17.857779 -3.531539 144.990165 8.31999 -178.243117 74.675358 87.638491 -87.300049 70.776122 -51.818119 69.29451 40.984895 -49.736742 42.402486 -0.000872 -0.000399 -0.000831 -15.71043 -38.722906 148.306326 -167.513519 -86.044673 110.616049 93.539974 70.927511 157.527956 179.993244 75.748967 0.004307 -134.323368 -0.34369 88.658208 83.273596 -3.483326 14.86324 -135.581942 -36.210434 115.11424
